<svg xmlns="http://www.w3.org/2000/svg" xmlns:xlink="http://www.w3.org/1999/xlink" width="500" zoomAndPan="magnify" viewBox="0 0 375 374.999991" height="500" preserveAspectRatio="xMidYMid meet" version="1.0"><defs><g/><clipPath id="1bff6fe57e"><path d="M 230.539062 134.214844 L 314 134.214844 L 314 164.726562 L 230.539062 164.726562 Z M 230.539062 134.214844 " clip-rule="nonzero"/></clipPath><clipPath id="3662b12dac"><path d="M 309 107 L 354.289062 107 L 354.289062 148 L 309 148 Z M 309 107 " clip-rule="nonzero"/></clipPath></defs><path fill="#ffffff" d="M 314.78125 141.832031 L 314.78125 141.820312 L 314.777344 141.820312 Z M 314.78125 141.832031 " fill-opacity="1" fill-rule="nonzero"/><path fill="#ffffff" d="M 281.421875 149.597656 L 281.425781 149.597656 C 281.421875 149.589844 281.414062 149.578125 281.410156 149.570312 C 281.414062 149.578125 281.417969 149.589844 281.421875 149.597656 " fill-opacity="1" fill-rule="nonzero"/><path fill="#ffffff" d="M 263.214844 155.335938 C 263.214844 155.335938 263.21875 155.339844 263.21875 155.339844 L 263.214844 155.335938 " fill-opacity="1" fill-rule="nonzero"/><g clip-path="url(#1bff6fe57e)"><path fill="#ffffff" d="M 231.070312 159.527344 C 231.367188 160.261719 231.804688 160.941406 232.328125 161.523438 C 232.859375 162.101562 233.46875 162.578125 234.101562 162.964844 C 235.375 163.734375 236.730469 164.171875 238.058594 164.457031 C 239.394531 164.742188 240.722656 164.875 242.035156 164.929688 C 243.347656 164.988281 244.648438 164.953125 245.9375 164.871094 C 248.515625 164.710938 251.050781 164.347656 253.550781 163.855469 C 254.796875 163.609375 256.039062 163.339844 257.269531 163.03125 C 258.5 162.730469 259.722656 162.402344 260.933594 162.046875 C 262.832031 161.5 264.707031 160.898438 266.566406 160.25 C 267.769531 159.832031 268.964844 159.398438 270.15625 158.949219 C 271.835938 158.316406 273.503906 157.65625 275.164062 156.980469 C 277.9375 155.84375 280.6875 154.664062 283.421875 153.453125 C 284.53125 152.964844 285.640625 152.472656 286.746094 151.976562 C 287.484375 151.644531 288.21875 151.316406 288.949219 150.984375 C 293.511719 148.917969 298.046875 146.804688 302.554688 144.632812 C 305.5625 143.179688 308.59375 141.707031 311.585938 140.207031 C 312.132812 139.933594 313.03125 139.476562 313.628906 139.175781 C 314.027344 138.972656 314.101562 138.417969 313.757812 138.136719 C 313.738281 138.121094 313.71875 138.105469 313.699219 138.09375 C 313.167969 137.769531 312.5 137.757812 311.960938 138.070312 C 311.644531 138.25 311.308594 138.445312 311.066406 138.582031 C 308.085938 140.308594 305.070312 141.96875 302.007812 143.546875 C 297.582031 145.835938 293.074219 147.976562 288.480469 149.914062 C 288.160156 150.050781 287.839844 150.183594 287.515625 150.316406 C 287.351562 150.386719 287.1875 150.453125 287.023438 150.519531 C 286.953125 150.550781 286.878906 150.578125 286.804688 150.609375 C 286.695312 150.65625 286.582031 150.703125 286.472656 150.746094 C 286.363281 150.789062 286.253906 150.835938 286.144531 150.878906 C 286.0625 150.914062 285.980469 150.945312 285.898438 150.980469 C 285.699219 151.058594 285.503906 151.136719 285.304688 151.214844 C 285.304688 151.214844 285.300781 151.21875 285.296875 151.21875 C 285.015625 151.332031 284.730469 151.441406 284.449219 151.554688 C 284.167969 151.664062 283.875 151.75 283.59375 151.859375 C 283.308594 151.96875 283.023438 152.074219 282.730469 152.164062 L 282.726562 152.164062 C 280.023438 153.289062 277.242188 154.175781 274.464844 155.070312 C 272.511719 155.699219 270.539062 156.265625 268.582031 156.859375 L 268.574219 156.863281 C 267.347656 157.234375 266.121094 157.609375 264.867188 157.886719 C 264.867188 157.886719 264.867188 157.886719 264.863281 157.886719 L 264.851562 157.890625 C 263.300781 158.359375 261.722656 158.726562 260.15625 159.105469 C 259.554688 159.25 258.957031 159.398438 258.355469 159.535156 C 257.753906 159.671875 257.15625 159.8125 256.554688 159.9375 C 255.351562 160.195312 254.152344 160.445312 252.945312 160.664062 C 250.535156 161.101562 248.121094 161.464844 245.714844 161.652344 C 244.515625 161.742188 243.316406 161.78125 242.132812 161.761719 C 240.953125 161.738281 239.785156 161.644531 238.667969 161.433594 C 237.558594 161.226562 236.492188 160.90625 235.609375 160.40625 C 234.726562 159.910156 234.050781 159.25 233.667969 158.414062 C 233.277344 157.585938 233.1875 156.5625 233.3125 155.488281 C 233.441406 154.414062 233.78125 153.304688 234.21875 152.21875 C 234.65625 151.128906 235.207031 150.0625 235.8125 149.015625 C 236.410156 147.964844 237.078125 146.941406 237.777344 145.933594 C 239.175781 143.917969 240.71875 141.980469 242.324219 140.085938 C 243.929688 138.195312 245.605469 136.347656 247.3125 134.519531 L 247.0625 134.253906 C 245.109375 135.820312 243.214844 137.472656 241.398438 139.214844 C 239.578125 140.957031 237.839844 142.792969 236.222656 144.761719 C 234.621094 146.738281 233.121094 148.839844 231.972656 151.226562 C 231.40625 152.421875 230.933594 153.699219 230.6875 155.097656 C 230.566406 155.796875 230.507812 156.527344 230.558594 157.277344 C 230.609375 158.027344 230.773438 158.796875 231.070312 159.527344 " fill-opacity="1" fill-rule="nonzero"/></g><path fill="#ffffff" d="M 345.515625 148.644531 C 345.515625 148.652344 345.515625 148.652344 345.515625 148.65625 C 345.519531 148.660156 345.519531 148.664062 345.519531 148.667969 L 345.554688 148.644531 C 345.539062 148.644531 345.527344 148.644531 345.515625 148.644531 " fill-opacity="1" fill-rule="nonzero"/><g clip-path="url(#3662b12dac)"><path fill="#ffffff" d="M 309.890625 132.304688 L 312.859375 134.144531 L 313.664062 134.644531 C 313.664062 134.644531 315.617188 135.855469 315.632812 135.863281 C 316.085938 136.144531 316.492188 136.5 316.746094 136.972656 C 316.96875 137.386719 317.03125 137.855469 317.125 138.3125 C 317.265625 139.019531 317.40625 139.722656 317.546875 140.429688 L 317.550781 140.433594 L 318.347656 144.414062 C 318.457031 144.949219 318.878906 145.148438 319.292969 144.859375 C 319.707031 144.566406 320.058594 143.882812 320.074219 143.339844 L 320.171875 139.066406 L 320.171875 139.0625 L 320.230469 136.195312 L 324.382812 133.519531 L 324.683594 133.324219 L 324.6875 133.320312 L 336.511719 125.703125 L 336.617188 126.207031 L 336.621094 126.214844 L 336.664062 126.207031 L 337.414062 129.167969 L 337.417969 129.183594 L 341.359375 147.039062 C 341.445312 147.410156 341.640625 147.65625 341.917969 147.574219 L 341.933594 147.570312 C 342.039062 147.535156 342.160156 147.484375 342.273438 147.40625 L 344.136719 146.101562 C 344.574219 145.796875 344.917969 145.125 344.902344 144.597656 L 344.746094 139.601562 C 344.878906 139.578125 344.96875 139.472656 345.085938 139.390625 L 345.90625 138.816406 L 346.128906 138.664062 C 346.5625 138.363281 346.757812 137.851562 346.457031 137.417969 L 346.234375 137.101562 C 346.136719 136.964844 346 136.847656 345.84375 136.765625 C 345.515625 136.589844 345.097656 136.5625 344.804688 136.765625 L 344.617188 136.898438 L 344.511719 132.542969 C 344.644531 132.519531 344.816406 132.53125 344.933594 132.449219 L 345.363281 132.148438 L 345.945312 131.742188 C 346.375 131.441406 346.488281 130.820312 346.183594 130.386719 L 345.964844 130.074219 C 345.769531 129.789062 345.398438 129.59375 345.046875 129.578125 C 344.859375 129.566406 344.675781 129.605469 344.527344 129.710938 L 344.367188 129.820312 L 344.230469 124.90625 L 344.222656 124.6875 L 344.125 121.242188 L 344.109375 120.753906 L 350.085938 117.007812 L 350.132812 116.976562 C 351.5 116.089844 353.695312 113.6875 354.355469 111.917969 C 354.582031 111.3125 354.628906 110.78125 354.402344 110.410156 C 354.191406 110.0625 353.753906 109.890625 353.191406 109.84375 C 351.398438 109.691406 348.292969 110.816406 346.894531 111.722656 C 346.871094 111.738281 344.773438 113.3125 341.714844 115.617188 C 341.617188 115.691406 341.515625 115.769531 341.414062 115.84375 C 341.257812 115.960938 341.101562 116.082031 340.941406 116.199219 L 340.640625 116.078125 L 340.445312 115.996094 L 337.699219 114.878906 L 332.464844 112.746094 L 332.621094 112.636719 C 333.054688 112.335938 333.183594 111.742188 332.882812 111.308594 L 332.664062 110.992188 C 332.359375 110.558594 331.824219 110.574219 331.394531 110.875 L 330.382812 111.578125 C 330.265625 111.660156 330.121094 111.6875 330.050781 111.804688 L 325.910156 110.066406 L 326.097656 109.9375 C 326.53125 109.632812 326.683594 109.058594 326.378906 108.625 L 326.160156 108.308594 C 325.859375 107.875 325.207031 107.734375 324.773438 108.039062 L 323.730469 108.765625 C 323.617188 108.84375 323.527344 108.953125 323.457031 109.066406 L 318.820312 107.183594 C 318.328125 106.984375 317.546875 107.03125 317.117188 107.335938 L 315.25 108.636719 C 314.816406 108.9375 314.851562 109.457031 315.296875 109.742188 L 330.046875 119.292969 L 333.015625 121.214844 L 333.710938 121.664062 C 333.488281 121.835938 333.257812 122.007812 333.035156 122.175781 C 326.835938 126.847656 320.425781 131.679688 318.210938 133.351562 L 315.625 132.46875 L 312.699219 131.46875 L 311.492188 131.054688 C 310.980469 130.878906 310.21875 130.96875 309.804688 131.257812 C 309.386719 131.550781 309.425781 132.019531 309.890625 132.304688 " fill-opacity="1" fill-rule="nonzero"/></g><g fill="#ffffff" fill-opacity="1"><g transform="translate(20.367337, 243.71406)"><g><path d="M 4.796875 -35.59375 C 4.796875 -40.613281 5.421875 -45.375 6.671875 -49.875 C 7.929688 -54.382812 9.921875 -58.382812 12.640625 -61.875 C 15.359375 -65.375 18.941406 -68.132812 23.390625 -70.15625 C 27.847656 -72.1875 33.28125 -73.203125 39.6875 -73.203125 C 41.757812 -73.203125 43.566406 -73.109375 45.109375 -72.921875 C 46.660156 -72.734375 48.394531 -72.425781 50.3125 -72 L 50.3125 -64.640625 C 48.34375 -65.066406 46.582031 -65.398438 45.03125 -65.640625 C 43.488281 -65.878906 41.625 -66 39.4375 -66 C 34.800781 -66 30.851562 -65.316406 27.59375 -63.953125 C 24.34375 -62.597656 21.703125 -60.707031 19.671875 -58.28125 C 17.648438 -55.851562 16.101562 -53.078125 15.03125 -49.953125 C 13.96875 -46.835938 13.304688 -43.519531 13.046875 -40 L 43.6875 -40 L 43.6875 -32.796875 L 12.953125 -32.796875 C 13.222656 -27.253906 14.144531 -21.585938 15.71875 -15.796875 C 17.289062 -10.015625 19.304688 -4.75 21.765625 0 L 13.4375 0 C 12 -3.039062 10.613281 -6.535156 9.28125 -10.484375 C 7.945312 -14.429688 6.863281 -18.5625 6.03125 -22.875 C 5.207031 -27.195312 4.796875 -31.4375 4.796875 -35.59375 Z M 4.796875 -35.59375 "/></g></g></g><g fill="#ffffff" fill-opacity="1"><g transform="translate(73.078252, 243.71406)"><g><path d="M 4.796875 -24.234375 C 4.796875 -28.828125 5.15625 -33.46875 5.875 -38.15625 C 6.59375 -42.851562 7.484375 -47.359375 8.546875 -51.671875 C 9.617188 -55.992188 10.753906 -59.914062 11.953125 -63.4375 C 13.160156 -66.957031 14.242188 -69.8125 15.203125 -72 L 23.515625 -72 C 22.828125 -70.394531 22.015625 -68.300781 21.078125 -65.71875 C 20.148438 -63.132812 19.203125 -60.226562 18.234375 -57 C 17.273438 -53.769531 16.394531 -50.367188 15.59375 -46.796875 C 14.800781 -43.222656 14.148438 -39.648438 13.640625 -36.078125 C 13.128906 -32.503906 12.875 -29.09375 12.875 -25.84375 C 12.875 -19.8125 13.820312 -15.007812 15.71875 -11.4375 C 17.613281 -7.863281 20.800781 -6.078125 25.28125 -6.078125 C 28.957031 -6.078125 32.207031 -7.0625 35.03125 -9.03125 C 37.863281 -11.007812 40.253906 -13.703125 42.203125 -17.109375 C 44.148438 -20.523438 45.613281 -24.421875 46.59375 -28.796875 C 47.582031 -33.171875 48.078125 -37.757812 48.078125 -42.5625 L 48.078125 -72 L 56.078125 -72 L 56.078125 0 L 48.078125 0 L 48.078125 -15.515625 C 46.796875 -12.472656 45.035156 -9.6875 42.796875 -7.15625 C 40.554688 -4.625 37.941406 -2.597656 34.953125 -1.078125 C 31.972656 0.441406 28.695312 1.203125 25.125 1.203125 C 20.320312 1.203125 16.425781 0.109375 13.4375 -2.078125 C 10.445312 -4.265625 8.257812 -7.265625 6.875 -11.078125 C 5.488281 -14.890625 4.796875 -19.273438 4.796875 -24.234375 Z M 4.796875 -24.234375 "/></g></g></g><g fill="#ffffff" fill-opacity="1"><g transform="translate(133.947764, 243.71406)"><g><path d="M 4.796875 -49.765625 C 4.796875 -54.023438 5.726562 -57.925781 7.59375 -61.46875 C 9.46875 -65.019531 12.253906 -67.863281 15.953125 -70 C 19.660156 -72.132812 24.238281 -73.203125 29.6875 -73.203125 C 33.945312 -73.203125 37.53125 -72.613281 40.4375 -71.4375 C 43.34375 -70.269531 45.703125 -68.722656 47.515625 -66.796875 C 49.328125 -64.878906 50.632812 -62.742188 51.4375 -60.390625 C 52.238281 -58.046875 52.640625 -55.675781 52.640625 -53.28125 C 52.640625 -49.707031 52.023438 -46.734375 50.796875 -44.359375 C 49.566406 -41.984375 47.992188 -40.101562 46.078125 -38.71875 C 44.160156 -37.332031 42.1875 -36.304688 40.15625 -35.640625 C 38.132812 -34.972656 36.320312 -34.503906 34.71875 -34.234375 C 38.5625 -33.648438 41.722656 -32.316406 44.203125 -30.234375 C 46.679688 -28.160156 48.546875 -25.5625 49.796875 -22.4375 C 51.054688 -19.320312 51.773438 -15.84375 51.953125 -12 C 52.140625 -8.15625 51.835938 -4.15625 51.046875 0 L 43.125 0 C 44.1875 -6.132812 44.359375 -11.304688 43.640625 -15.515625 C 42.921875 -19.734375 41.585938 -23.109375 39.640625 -25.640625 C 37.691406 -28.171875 35.300781 -29.992188 32.46875 -31.109375 C 29.644531 -32.234375 26.632812 -32.796875 23.4375 -32.796875 L 12.796875 -32.796875 L 12.796875 0 L 4.796875 0 Z M 12.796875 -40 L 27.59375 -40 C 29.351562 -40 31.21875 -40.195312 33.1875 -40.59375 C 35.164062 -41 37.019531 -41.691406 38.75 -42.671875 C 40.488281 -43.660156 41.90625 -45.019531 43 -46.75 C 44.09375 -48.488281 44.640625 -50.71875 44.640625 -53.4375 C 44.640625 -55.519531 44.117188 -57.519531 43.078125 -59.4375 C 42.035156 -61.351562 40.421875 -62.925781 38.234375 -64.15625 C 36.046875 -65.382812 33.222656 -66 29.765625 -66 C 24.484375 -66 20.332031 -64.546875 17.3125 -61.640625 C 14.300781 -58.734375 12.796875 -54.1875 12.796875 -48 Z M 12.796875 -40 "/></g></g></g><g fill="#ffffff" fill-opacity="1"><g transform="translate(190.578022, 243.71406)"><g><path d="M 4.796875 -49.765625 C 4.796875 -54.023438 5.726562 -57.925781 7.59375 -61.46875 C 9.46875 -65.019531 12.253906 -67.863281 15.953125 -70 C 19.660156 -72.132812 24.238281 -73.203125 29.6875 -73.203125 C 33.945312 -73.203125 37.53125 -72.613281 40.4375 -71.4375 C 43.34375 -70.269531 45.703125 -68.722656 47.515625 -66.796875 C 49.328125 -64.878906 50.632812 -62.742188 51.4375 -60.390625 C 52.238281 -58.046875 52.640625 -55.675781 52.640625 -53.28125 C 52.640625 -49.707031 52.023438 -46.734375 50.796875 -44.359375 C 49.566406 -41.984375 47.992188 -40.101562 46.078125 -38.71875 C 44.160156 -37.332031 42.1875 -36.304688 40.15625 -35.640625 C 38.132812 -34.972656 36.320312 -34.503906 34.71875 -34.234375 C 38.5625 -33.648438 41.722656 -32.316406 44.203125 -30.234375 C 46.679688 -28.160156 48.546875 -25.5625 49.796875 -22.4375 C 51.054688 -19.320312 51.773438 -15.84375 51.953125 -12 C 52.140625 -8.15625 51.835938 -4.15625 51.046875 0 L 43.125 0 C 44.1875 -6.132812 44.359375 -11.304688 43.640625 -15.515625 C 42.921875 -19.734375 41.585938 -23.109375 39.640625 -25.640625 C 37.691406 -28.171875 35.300781 -29.992188 32.46875 -31.109375 C 29.644531 -32.234375 26.632812 -32.796875 23.4375 -32.796875 L 12.796875 -32.796875 L 12.796875 0 L 4.796875 0 Z M 12.796875 -40 L 27.59375 -40 C 29.351562 -40 31.21875 -40.195312 33.1875 -40.59375 C 35.164062 -41 37.019531 -41.691406 38.75 -42.671875 C 40.488281 -43.660156 41.90625 -45.019531 43 -46.75 C 44.09375 -48.488281 44.640625 -50.71875 44.640625 -53.4375 C 44.640625 -55.519531 44.117188 -57.519531 43.078125 -59.4375 C 42.035156 -61.351562 40.421875 -62.925781 38.234375 -64.15625 C 36.046875 -65.382812 33.222656 -66 29.765625 -66 C 24.484375 -66 20.332031 -64.546875 17.3125 -61.640625 C 14.300781 -58.734375 12.796875 -54.1875 12.796875 -48 Z M 12.796875 -40 "/></g></g></g><g fill="#ffffff" fill-opacity="1"><g transform="translate(247.208281, 243.71406)"><g><path d="M 4.796875 0 L 4.796875 -72 L 12.875 -72 L 12.875 0 Z M 4.796875 0 "/></g></g></g><g fill="#ffffff" fill-opacity="1"><g transform="translate(264.885246, 243.71406)"><g><path d="M 2.40625 0 L 22.40625 -72 L 36.3125 -72 L 56.3125 0 L 48 0 L 42.484375 -20 L 16.234375 -20 L 10.71875 0 Z M 29.359375 -67.125 L 16.234375 -20 L 18.234375 -27.203125 L 40.484375 -27.203125 Z M 29.359375 -67.125 "/></g></g></g></svg>