<svg xmlns="http://www.w3.org/2000/svg" xmlns:xlink="http://www.w3.org/1999/xlink" width="500" zoomAndPan="magnify" viewBox="0 0 375 374.999991" height="500" preserveAspectRatio="xMidYMid meet" version="1.0"><defs><g/></defs><path stroke-linecap="butt" transform="matrix(0.75, 0, 0, 0.75, 33.509013, -12.253409)" fill="none" stroke-linejoin="miter" d="M 29.071317 268.551438 C 29.071317 238.218103 32.852567 209.421226 40.420276 182.160807 C 47.982777 154.900389 59.998403 130.707679 76.467154 109.593094 C 92.930696 88.400384 114.639031 71.697258 141.581741 59.483716 C 168.52966 47.192048 201.383829 41.046215 240.149456 41.046215 C 252.675499 41.046215 263.628624 41.639965 273.003625 42.822256 C 282.378626 43.921215 292.857793 45.775382 304.441127 48.37434 L 304.441127 92.811843 C 292.545293 90.29101 281.904667 88.322259 272.529667 86.905593 C 263.154666 85.405593 251.847374 84.655592 238.612998 84.655592 C 210.566121 84.655592 186.691119 88.796218 166.993201 97.067052 C 147.295283 105.259761 131.300491 116.686845 119.008823 131.337887 C 106.800489 145.994138 97.461947 162.775389 91.003613 181.686849 C 84.540071 200.598308 80.524446 220.686851 78.946321 241.957686 L 264.258833 241.957686 L 264.258833 285.572272 L 78.472362 285.572272 C 80.050487 319.134775 85.602571 353.40561 95.13903 388.389987 C 104.670281 423.374365 116.842156 455.244159 131.654657 483.999369 L 81.310904 483.999369 C 72.644237 465.639993 64.253611 444.525408 56.139027 420.655615 C 48.102568 396.702488 41.560901 371.686861 36.519234 345.608735 C 31.555692 319.447275 29.071317 293.764981 29.071317 268.551438 Z M 29.071317 268.551438 " stroke="#ffffff" stroke-width="30.255438" stroke-opacity="1" stroke-miterlimit="4"/><g fill="#ffffff" fill-opacity="1"><g transform="translate(33.509013, 350.746567)"><g><path d="M 21.78125 -161.5625 C 21.78125 -184.3125 24.625 -205.910156 30.3125 -226.359375 C 36 -246.816406 45.015625 -264.972656 57.359375 -280.828125 C 69.703125 -296.679688 85.976562 -309.207031 106.1875 -318.40625 C 126.40625 -327.601562 151.035156 -332.203125 180.078125 -332.203125 C 189.515625 -332.203125 197.742188 -331.773438 204.765625 -330.921875 C 211.785156 -330.078125 219.648438 -328.6875 228.359375 -326.75 L 228.359375 -293.359375 C 219.410156 -295.296875 211.425781 -296.804688 204.40625 -297.890625 C 197.382812 -298.984375 188.910156 -299.53125 178.984375 -299.53125 C 157.929688 -299.53125 140.019531 -296.441406 125.25 -290.265625 C 110.488281 -284.097656 98.507812 -275.503906 89.3125 -264.484375 C 80.113281 -253.472656 73.09375 -240.890625 68.25 -226.734375 C 63.414062 -212.578125 60.390625 -197.507812 59.171875 -181.53125 L 198.234375 -181.53125 L 198.234375 -148.859375 L 58.8125 -148.859375 C 60.019531 -123.679688 64.191406 -97.960938 71.328125 -71.703125 C 78.472656 -45.441406 87.613281 -21.539062 98.75 0 L 61 0 C 54.457031 -13.789062 48.160156 -29.640625 42.109375 -47.546875 C 36.054688 -65.460938 31.15625 -84.222656 27.40625 -103.828125 C 23.65625 -123.441406 21.78125 -142.6875 21.78125 -161.5625 Z M 21.78125 -161.5625 "/></g></g></g></svg>